<svg width="28" height="30" viewBox="0 0 28 30" xmlns="http://www.w3.org/2000/svg"><title>Combined Shape</title><path d="M14 16.246V0H0v30h28v-5.998c0-2.104-1.588-4.21-3.61-4.787L14 16.245zM2 2h10v15.754l11.841 3.384C25.004 21.47 26 22.79 26 24.002V28H2V2zm0 5h10V5H2v2zm7 8h4v-2H9v2zm1.555 4.832l3-2-1.11-1.664-3 2 1.11 1.664zM9 11h4V9H9v2zM2 26h24v-2H2v2zm13.949-4.684l1-3-1.898-.632-1 3 1.898.632zm-1.898-.632l1.898.632 1-3-1.898-.632-1 3zm5.898 1.632l1-3-1.898-.632-1 3 1.898.632zm-1.898-.632l1.898.632 1-3-1.898-.632-1 3z" fill="#222" fill-rule="evenodd"/></svg>