<svg width="76" height="76" viewBox="0 0 76 76" xmlns="http://www.w3.org/2000/svg"><title>ico-calc-btns</title><g fill-rule="evenodd"><path d="M42 34h32V2H42v32zM40 0h36v36H40V0zM2 74h32V42H2v32zM0 40h36v36H0V40zm42 34h32V42H42v32zm-2-34h36v36H40V40zM2 34h32V2H2v32zM0 0h36v36H0V0z"/><path d="M17 19H8v-2h9V8h2v9h9v2h-9v9h-2v-9zm-.414 39l-7.778-7.778 1.414-1.414L18 56.586l7.778-7.778 1.414 1.414L19.414 58l7.778 7.778-1.414 1.414L18 59.414l-7.778 7.778-1.414-1.414L16.586 58zM48 19h20v-2H48zm0 35h20v-2H48zm0 10h20v-2H48z"/></g></svg>