<svg width="76" height="76" viewBox="0 0 76 76" xmlns="http://www.w3.org/2000/svg"><title>ico-form-print</title><g style="mix-blend-mode:multiply" fill-rule="evenodd"><path d="M24 66h-2v10h54V10H53v2h21v62H24v-8z"/><path d="M53.273 22H65v-2H53.273zm0 7H65v-2H53.273zm0 7H65v-2H53.273zm0 19H65v-2H53.273zM53 62h9v-2h-9z"/><path d="M2 64h50V2H2v62zM0 0h54v66H0V0z"/><path d="M12 16h6v-6h-6v6zm-2-8h10v10H10V8zm0 17h34v-2H10zm0 6h34v-2H10zm0 6h30v-2H10zm0 21h18v-2H10zM1 45h4v-2H1zm6 0h4v-2H7zm6 0h4v-2h-4zm6 0h4v-2h-4zm6 0h4v-2h-4zm6 0h4v-2h-4zm6 0h4v-2h-4zm6 0h4v-2h-4zm6 0h4v-2h-4zM24 10h20V8H24zm0 8h13v-2H24zm0-4h20v-2H24zM10 53h34v-2H10z"/></g></svg>