<svg width="76" height="68" viewBox="0 0 76 68" xmlns="http://www.w3.org/2000/svg"><title>ico-forms-bars</title><g style="mix-blend-mode:multiply" fill-rule="evenodd"><path d="M2 30h72V2H2v28zM0 0h76v32H0V0z"/><path d="M16 17.414l-5.855 5.856-1.415-1.415L14.586 16 8.73 10.145l1.415-1.415L16 14.586l5.855-5.856 1.415 1.415L17.414 16l5.856 5.855-1.415 1.415L16 17.414zM29 11h37V9H29zm0 12h26v-2H29zm0-6h37v-2H29zM2 48h72V38H2v10zM0 36h76v14H0V36z"/><path d="M39 44h29v-2H39zM8 44h10v-2H8zm15 0h10v-2H23zM2 66h72V56H2v10zM0 54h76v14H0V54z"/><path d="M39 62h29v-2H39zM8 62h10v-2H8zm15 0h10v-2H23z"/></g></svg>