<svg width="72" height="71" viewBox="0 0 72 71" xmlns="http://www.w3.org/2000/svg"><title>ico-export</title><g fill-rule="evenodd"><path d="M2 12h57V2H2v10zM0 0h61v14H0V0z"/><path d="M22 8h20V6H22zm24 0h7V6h-7zM8 8h10V6H8zM2 31h57V21H2v10zM0 19h61v14H0V19z"/><path d="M22 27h20v-2H22zm24 0h7v-2h-7zM8 27h10v-2H8zM2 50h57V40H2v10zM0 38h61v14H0V38z"/><path d="M22 46h20v-2H22zm24 0h7v-2h-7zM8 46h10v-2H8zm5 23h57V59H13v10zm-2-12h61v14H11V57z"/><path d="M33 65h20v-2H33zm24 0h7v-2h-7zm-38 0h10v-2H19zM0 59h8v-2H0zm3 6h5v-2H3zm-3 6h8v-2H0z"/></g></svg>