<svg width="70" height="60" viewBox="0 0 70 60" xmlns="http://www.w3.org/2000/svg"><title>ico-hot-agregate</title><path d="M2 14h12V2H2v12zm14 37h2c1.654 0 3-1.35 3-3.01V31h-5v7H0V22h16v7h5V11.995A3.003 3.003 0 0 0 18 9h-2v7H0V0h16v7h2c2.759 0 5 2.242 5 4.995V29h5.05c.501-5.053 4.765-9 9.95-9s9.449 3.947 9.95 9H54v-8l16 9-16 9v-8h-6.05c-.501 5.053-4.765 9-9.95 9s-9.449-3.947-9.95-9H23v16.99c0 2.763-2.24 5.01-5 5.01h-2v7H0V44h16v7zM2 58h12V46H2v12zm36-20a8 8 0 1 0 0-16 8 8 0 0 0 0 16zm18-2.42L65.92 30 56 24.42v11.16zM2 36h12V24H2v12z" style="mix-blend-mode:multiply" fill-rule="evenodd"/></svg>