<svg width="70" height="70" viewBox="0 0 70 70" xmlns="http://www.w3.org/2000/svg" xmlns:xlink="http://www.w3.org/1999/xlink"><title>ico-map-track</title><defs><circle id="a" cx="58" cy="36" r="4"/><mask id="b" x="0" y="0" width="8" height="8" fill="#fff"><use xlink:href="#a"/></mask></defs><g style="mix-blend-mode:multiply" fill="none" fill-rule="evenodd"><path fill="#000" d="M18 20.174L0 28v42l23-10 24 10 23-10V18L47 28v2.167l.017.007L68 21.05v37.64l-21.017 9.137-24-10L2 66.95V29.31l16-6.956z"/><path d="M13 51.414l-2.105 2.106-1.415-1.415L11.586 50 9.48 47.895l1.415-1.415L13 48.586l2.105-2.106 1.415 1.415L14.414 50l2.106 2.105-1.415 1.415L13 51.414z" fill="#000"/><use stroke="#000" mask="url(#b)" stroke-width="4" fill="#FFF" xlink:href="#a"/><path d="M36.245 44.312a158.784 158.784 0 0 0 6.11-8.222 103.08 103.08 0 0 0 3.961-6.148C49.33 24.841 51 20.677 51 18c0-8.837-7.163-16-16-16S19 9.163 19 18c0 2.677 1.67 6.84 4.684 11.942a103.08 103.08 0 0 0 3.961 6.148 158.784 158.784 0 0 0 6.11 8.222c.435.549.851 1.067 1.245 1.552.394-.485.81-1.003 1.245-1.552zM35 49S17 27.941 17 18c0-9.941 8.059-18 18-18s18 8.059 18 18-18 31-18 31z" fill="#000"/><path d="M35 24a6 6 0 1 0 0-12 6 6 0 0 0 0 12zm0 2a8 8 0 1 1 0-16 8 8 0 0 1 0 16z" fill="#000"/><path d="M23 56V37m24 28V37" stroke="#222" stroke-width="2"/></g></svg>