<svg width="16" height="16" viewBox="0 0 16 16" xmlns="http://www.w3.org/2000/svg"><title>Fill 151</title><path d="M8 0a8 8 0 0 0-2.53 15.59c.4.074.547-.173.547-.385 0-.19-.007-.693-.011-1.36-2.226.483-2.695-1.073-2.695-1.073-.364-.924-.888-1.17-.888-1.17-.727-.496.054-.486.054-.486.803.056 1.226.824 1.226.824.713 1.223 1.872.87 2.328.665.073-.517.28-.87.508-1.07-1.777-.202-3.644-.888-3.644-3.953 0-.874.312-1.588.823-2.147-.082-.202-.356-1.016.079-2.117 0 0 .672-.215 2.2.82A7.666 7.666 0 0 1 8 3.868c.68.004 1.364.092 2.003.27 1.527-1.035 2.198-.82 2.198-.82.436 1.101.162 1.915.08 2.117.512.56.822 1.273.822 2.147 0 3.073-1.87 3.75-3.652 3.947.287.247.543.735.543 1.482 0 1.07-.01 1.932-.01 2.194 0 .214.144.463.55.385A8.002 8.002 0 0 0 7.999 0" fill="#FFF" fill-rule="evenodd"/></svg>