<svg width="18" height="13" viewBox="0 0 18 13" xmlns="http://www.w3.org/2000/svg"><title>Fill 155</title><path d="M7.142 8.665L7.14 3.607l4.864 2.538-4.863 2.52zM17.82 2.73s-.176-1.24-.715-1.787C16.42.228 15.653.224 15.3.182 12.782 0 9.004 0 9.004 0h-.008S5.218 0 2.7.182C2.347.224 1.58.228.895.944.355 1.491.18 2.731.18 2.731S0 4.188 0 5.644V7.01c0 1.457.18 2.913.18 2.913s.176 1.24.715 1.787c.685.717 1.584.694 1.985.77 1.44.137 6.12.18 6.12.18s3.782-.006 6.301-.188c.352-.042 1.12-.045 1.804-.762.54-.546.715-1.787.715-1.787S18 8.467 18 7.01V5.644c0-1.456-.18-2.913-.18-2.913z" fill="#FFF" fill-rule="evenodd"/></svg>