<svg width="43" height="66" viewBox="0 0 43 66" xmlns="http://www.w3.org/2000/svg"><title>Group 4</title><g style="mix-blend-mode:multiply" fill-rule="evenodd"><path d="M9.5 34a1.5 1.5 0 1 0 0-3 1.5 1.5 0 0 0 0 3zm0 2a3.5 3.5 0 1 1 0-7 3.5 3.5 0 0 1 0 7z"/><path d="M6 7H4.007A4.007 4.007 0 0 0 0 11.009V61.99A4.01 4.01 0 0 0 4.007 66h34.986A4.007 4.007 0 0 0 43 61.991V11.01A4.01 4.01 0 0 0 38.993 7H37V0H6v7zm31 2h1.993A2.01 2.01 0 0 1 41 11.009V61.99c0 1.11-.898 2.009-2.007 2.009H4.007A2.01 2.01 0 0 1 2 61.991V11.01C2 9.899 2.898 9 4.007 9H6v18h31V9zM8 2h27v23H8V2z"/><path d="M9.5 42a1.5 1.5 0 1 0 0-3 1.5 1.5 0 0 0 0 3zm0 2a3.5 3.5 0 1 1 0-7 3.5 3.5 0 0 1 0 7zm8-10a1.5 1.5 0 1 0 0-3 1.5 1.5 0 0 0 0 3zm0 2a3.5 3.5 0 1 1 0-7 3.5 3.5 0 0 1 0 7zm0 6a1.5 1.5 0 1 0 0-3 1.5 1.5 0 0 0 0 3zm0 2a3.5 3.5 0 1 1 0-7 3.5 3.5 0 0 1 0 7zm8-10a1.5 1.5 0 1 0 0-3 1.5 1.5 0 0 0 0 3zm0 2a3.5 3.5 0 1 1 0-7 3.5 3.5 0 0 1 0 7zm0 6a1.5 1.5 0 1 0 0-3 1.5 1.5 0 0 0 0 3zm0 2a3.5 3.5 0 1 1 0-7 3.5 3.5 0 0 1 0 7zm8-10a1.5 1.5 0 1 0 0-3 1.5 1.5 0 0 0 0 3zm0 2a3.5 3.5 0 1 1 0-7 3.5 3.5 0 0 1 0 7zm0 6a1.5 1.5 0 1 0 0-3 1.5 1.5 0 0 0 0 3zm0 2a3.5 3.5 0 1 1 0-7 3.5 3.5 0 0 1 0 7zm-24 6a1.5 1.5 0 1 0 0-3 1.5 1.5 0 0 0 0 3zm0 2a3.5 3.5 0 1 1 0-7 3.5 3.5 0 0 1 0 7zm8-2a1.5 1.5 0 1 0 0-3 1.5 1.5 0 0 0 0 3zm0 2a3.5 3.5 0 1 1 0-7 3.5 3.5 0 0 1 0 7zm8-2a1.5 1.5 0 1 0 0-3 1.5 1.5 0 0 0 0 3zm0 2a3.5 3.5 0 1 1 0-7 3.5 3.5 0 0 1 0 7zm6.5-3.502v8.004c0 .821.676 1.498 1.5 1.498.826 0 1.5-.673 1.5-1.498v-8.004c0-.821-.676-1.498-1.5-1.498-.826 0-1.5.673-1.5 1.498zm-2 0A3.501 3.501 0 0 1 33.5 45c1.933 0 3.5 1.577 3.5 3.498v8.004A3.501 3.501 0 0 1 33.5 60a3.506 3.506 0 0 1-3.5-3.498v-8.004zM9.5 58a1.5 1.5 0 1 0 0-3 1.5 1.5 0 0 0 0 3zm0 2a3.5 3.5 0 1 1 0-7 3.5 3.5 0 0 1 0 7zm8-2a1.5 1.5 0 1 0 0-3 1.5 1.5 0 0 0 0 3zm0 2a3.5 3.5 0 1 1 0-7 3.5 3.5 0 0 1 0 7zm8-2a1.5 1.5 0 1 0 0-3 1.5 1.5 0 0 0 0 3zm0 2a3.5 3.5 0 1 1 0-7 3.5 3.5 0 0 1 0 7z"/></g></svg>