<svg width="20" height="12" viewBox="0 0 20 12" xmlns="http://www.w3.org/2000/svg"><title>Fill 153</title><path d="M9.785 11.362h1.196s.36-.04.545-.238c.17-.183.165-.525.165-.525s-.024-1.604.72-1.84c.735-.233 1.677 1.55 2.676 2.235.755.519 1.33.405 1.33.405l2.67-.037s1.397-.086.735-1.185c-.054-.09-.386-.812-1.986-2.297-1.675-1.555-1.45-1.303.567-3.992 1.228-1.638 1.72-2.637 1.566-3.065-.146-.408-1.05-.3-1.05-.3L15.912.54s-.223-.03-.388.069c-.162.096-.266.322-.266.322s-.476 1.267-1.11 2.345c-1.34 2.274-1.875 2.394-2.094 2.253-.51-.33-.382-1.322-.382-2.028 0-2.203.334-3.122-.65-3.36-.328-.079-.569-.131-1.405-.14-1.073-.01-1.98.004-2.495.256-.342.168-.606.54-.445.562.199.027.649.121.887.446.309.42.298 1.361.298 1.361s.177 2.594-.414 2.916c-.405.221-.961-.23-2.155-2.293-.612-1.056-1.074-2.225-1.074-2.225S4.131.807 3.972.69a1.273 1.273 0 0 0-.463-.186L.652.522S.222.535.065.721c-.14.166-.01.51-.01.51s2.236 5.233 4.77 7.871c2.323 2.42 4.96 2.26 4.96 2.26z" fill="#FFF" fill-rule="evenodd"/></svg>