<svg width="30" height="30" viewBox="0 0 30 30" xmlns="http://www.w3.org/2000/svg"><title>Group 2</title><path d="M30 7H20v5.998A3.999 3.999 0 0 0 24.002 17h1.996A3.999 3.999 0 0 0 30 12.998V7zm-2 2v3.998A1.999 1.999 0 0 1 25.998 15h-1.996A1.999 1.999 0 0 1 22 12.998V9h6zm-6-6v4h2V3h-2zm4 0v4h2V3h-2zm-6.056 23h2.528A3.534 3.534 0 0 0 26 22.469V16h-2v6.469c0 .842-.687 1.531-1.528 1.531h-2.528v2zM16 7v17H2V7h14zm0-2V3.996A2.009 2.009 0 0 0 13.99 2H4.01C2.891 2 2 2.89 2 3.996V5h14zm0 21v.004A1.996 1.996 0 0 1 13.99 28H4.01C2.901 28 2 27.1 2 26.004V26h14zM0 3.996v22.008C0 28.205 1.799 30 4.01 30h9.98A3.996 3.996 0 0 0 18 26.004V3.996C18 1.795 16.201 0 13.99 0H4.01A3.996 3.996 0 0 0 0 3.996z" fill="#222" fill-rule="evenodd"/></svg>