<?xml version="1.0" encoding="UTF-8" standalone="no"?>
<svg width="13px" height="13px" viewBox="0 0 13 13" version="1.1" xmlns="http://www.w3.org/2000/svg" xmlns:xlink="http://www.w3.org/1999/xlink">
    <!-- Generator: Sketch 41.2 (35397) - http://www.bohemiancoding.com/sketch -->
    <title>Combined Shape</title>
    <desc>Created with Sketch.</desc>
    <defs></defs>
    <g id="Symbols" stroke="none" stroke-width="1" fill="none" fill-rule="evenodd">
        <g id="checkbox/true" transform="translate(-6.000000, -6.000000)" fill="#666666">
            <path d="M12.5,10.3625701 L8.58221863,6.44478871 C7.9874723,5.85004237 7.03418352,5.85371357 6.44394855,6.44394855 C5.85491458,7.03298251 5.85408972,7.99151965 6.44478871,8.58221863 L10.3625701,12.5 L6.44478871,16.4177814 C5.85004237,17.0125277 5.85371357,17.9658165 6.44394855,18.5560515 C7.03298251,19.1450854 7.99151965,19.1459103 8.58221863,18.5552113 L12.5,14.6374299 L16.4177814,18.5552113 C17.0125277,19.1499576 17.9658165,19.1462864 18.5560515,18.5560515 C19.1450854,17.9670175 19.1459103,17.0084804 18.5552113,16.4177814 L14.6374299,12.5 L18.5552113,8.58221863 C19.1499576,7.9874723 19.1462864,7.03418352 18.5560515,6.44394855 C17.9670175,5.85491458 17.0084804,5.85408972 16.4177814,6.44478871 L12.5,10.3625701 L12.5,10.3625701 Z" id="Combined-Shape"></path>
        </g>
    </g>
</svg>