<?xml version="1.0" encoding="UTF-8" standalone="no"?>
<svg width="43px" height="66px" viewBox="0 0 43 66" version="1.1" xmlns="http://www.w3.org/2000/svg" xmlns:xlink="http://www.w3.org/1999/xlink">
    <!-- Generator: Sketch 41.2 (35397) - http://www.bohemiancoding.com/sketch -->
    <title>Group 4</title>
    <desc>Created with Sketch.</desc>
    <defs></defs>
    <g id="Symbols" stroke="none" stroke-width="1" fill-rule="evenodd">
        <g id="ICN/features/calc" transform="translate(-34.000000, -20.000000)" >
            <g id="Group-4">
                <g style="mix-blend-mode: multiply;" transform="translate(34.000000, 20.000000)">
                    <path d="M9.5,34 C10.3284271,34 11,33.3284271 11,32.5 C11,31.6715729 10.3284271,31 9.5,31 C8.67157288,31 8,31.6715729 8,32.5 C8,33.3284271 8.67157288,34 9.5,34 Z M9.5,36 C7.56700338,36 6,34.4329966 6,32.5 C6,30.5670034 7.56700338,29 9.5,29 C11.4329966,29 13,30.5670034 13,32.5 C13,34.4329966 11.4329966,36 9.5,36 Z" id="Oval"></path>
                    <path d="M6,7 L4.00672201,7 C1.79291122,7 0,8.79485666 0,11.0089246 L0,61.9910754 C0,64.2020322 1.79387055,66 4.00672201,66 L38.993278,66 C41.2070888,66 43,64.2051433 43,61.9910754 L43,11.0089246 C43,8.79796785 41.2061295,7 38.993278,7 L37,7 L37,0 L6,0 L6,7 L6,7 Z M37,9 L38.993278,9 C40.1000003,9 41,9.90097714 41,11.0089246 L41,61.9910754 C41,63.1012254 40.1018677,64 38.993278,64 L4.00672201,64 C2.89999968,64 2,63.0990229 2,61.9910754 L2,11.0089246 C2,9.89877463 2.89813227,9 4.00672201,9 L6,9 L6,27 L37,27 L37,9 L37,9 Z M8,2 L35,2 L35,25 L8,25 L8,2 Z" id="Combined-Shape"></path>
                    <path d="M9.5,42 C10.3284271,42 11,41.3284271 11,40.5 C11,39.6715729 10.3284271,39 9.5,39 C8.67157288,39 8,39.6715729 8,40.5 C8,41.3284271 8.67157288,42 9.5,42 Z M9.5,44 C7.56700338,44 6,42.4329966 6,40.5 C6,38.5670034 7.56700338,37 9.5,37 C11.4329966,37 13,38.5670034 13,40.5 C13,42.4329966 11.4329966,44 9.5,44 Z" id="Oval-Copy-16"></path>
                    <path d="M17.5,34 C18.3284271,34 19,33.3284271 19,32.5 C19,31.6715729 18.3284271,31 17.5,31 C16.6715729,31 16,31.6715729 16,32.5 C16,33.3284271 16.6715729,34 17.5,34 Z M17.5,36 C15.5670034,36 14,34.4329966 14,32.5 C14,30.5670034 15.5670034,29 17.5,29 C19.4329966,29 21,30.5670034 21,32.5 C21,34.4329966 19.4329966,36 17.5,36 Z" id="Oval-Copy-13"></path>
                    <path d="M17.5,42 C18.3284271,42 19,41.3284271 19,40.5 C19,39.6715729 18.3284271,39 17.5,39 C16.6715729,39 16,39.6715729 16,40.5 C16,41.3284271 16.6715729,42 17.5,42 Z M17.5,44 C15.5670034,44 14,42.4329966 14,40.5 C14,38.5670034 15.5670034,37 17.5,37 C19.4329966,37 21,38.5670034 21,40.5 C21,42.4329966 19.4329966,44 17.5,44 Z" id="Oval-Copy-17"></path>
                    <path d="M25.5,34 C26.3284271,34 27,33.3284271 27,32.5 C27,31.6715729 26.3284271,31 25.5,31 C24.6715729,31 24,31.6715729 24,32.5 C24,33.3284271 24.6715729,34 25.5,34 Z M25.5,36 C23.5670034,36 22,34.4329966 22,32.5 C22,30.5670034 23.5670034,29 25.5,29 C27.4329966,29 29,30.5670034 29,32.5 C29,34.4329966 27.4329966,36 25.5,36 Z" id="Oval-Copy-14"></path>
                    <path d="M25.5,42 C26.3284271,42 27,41.3284271 27,40.5 C27,39.6715729 26.3284271,39 25.5,39 C24.6715729,39 24,39.6715729 24,40.5 C24,41.3284271 24.6715729,42 25.5,42 Z M25.5,44 C23.5670034,44 22,42.4329966 22,40.5 C22,38.5670034 23.5670034,37 25.5,37 C27.4329966,37 29,38.5670034 29,40.5 C29,42.4329966 27.4329966,44 25.5,44 Z" id="Oval-Copy-18"></path>
                    <path d="M33.5,34 C34.3284271,34 35,33.3284271 35,32.5 C35,31.6715729 34.3284271,31 33.5,31 C32.6715729,31 32,31.6715729 32,32.5 C32,33.3284271 32.6715729,34 33.5,34 Z M33.5,36 C31.5670034,36 30,34.4329966 30,32.5 C30,30.5670034 31.5670034,29 33.5,29 C35.4329966,29 37,30.5670034 37,32.5 C37,34.4329966 35.4329966,36 33.5,36 Z" id="Oval-Copy-15"></path>
                    <path d="M33.5,42 C34.3284271,42 35,41.3284271 35,40.5 C35,39.6715729 34.3284271,39 33.5,39 C32.6715729,39 32,39.6715729 32,40.5 C32,41.3284271 32.6715729,42 33.5,42 Z M33.5,44 C31.5670034,44 30,42.4329966 30,40.5 C30,38.5670034 31.5670034,37 33.5,37 C35.4329966,37 37,38.5670034 37,40.5 C37,42.4329966 35.4329966,44 33.5,44 Z" id="Oval-Copy-19"></path>
                    <path d="M9.5,50 C10.3284271,50 11,49.3284271 11,48.5 C11,47.6715729 10.3284271,47 9.5,47 C8.67157288,47 8,47.6715729 8,48.5 C8,49.3284271 8.67157288,50 9.5,50 Z M9.5,52 C7.56700338,52 6,50.4329966 6,48.5 C6,46.5670034 7.56700338,45 9.5,45 C11.4329966,45 13,46.5670034 13,48.5 C13,50.4329966 11.4329966,52 9.5,52 Z" id="Oval-Copy-23"></path>
                    <path d="M17.5,50 C18.3284271,50 19,49.3284271 19,48.5 C19,47.6715729 18.3284271,47 17.5,47 C16.6715729,47 16,47.6715729 16,48.5 C16,49.3284271 16.6715729,50 17.5,50 Z M17.5,52 C15.5670034,52 14,50.4329966 14,48.5 C14,46.5670034 15.5670034,45 17.5,45 C19.4329966,45 21,46.5670034 21,48.5 C21,50.4329966 19.4329966,52 17.5,52 Z" id="Oval-Copy-22"></path>
                    <path d="M25.5,50 C26.3284271,50 27,49.3284271 27,48.5 C27,47.6715729 26.3284271,47 25.5,47 C24.6715729,47 24,47.6715729 24,48.5 C24,49.3284271 24.6715729,50 25.5,50 Z M25.5,52 C23.5670034,52 22,50.4329966 22,48.5 C22,46.5670034 23.5670034,45 25.5,45 C27.4329966,45 29,46.5670034 29,48.5 C29,50.4329966 27.4329966,52 25.5,52 Z" id="Oval-Copy-21"></path>
                    <path d="M32,48.4979027 L32,56.5020973 C32,57.322954 32.6760038,58 33.5,58 C34.3264676,58 35,57.3273933 35,56.5020973 L35,48.4979027 C35,47.677046 34.3239962,47 33.5,47 C32.6735324,47 32,47.6726067 32,48.4979027 Z M30,48.4979027 C30,46.5660644 31.5709366,45 33.5,45 C35.4329966,45 37,46.576912 37,48.4979027 L37,56.5020973 C37,58.4339356 35.4290634,60 33.5,60 C31.5670034,60 30,58.423088 30,56.5020973 L30,48.4979027 Z" id="Rectangle-17"></path>
                    <path d="M9.5,58 C10.3284271,58 11,57.3284271 11,56.5 C11,55.6715729 10.3284271,55 9.5,55 C8.67157288,55 8,55.6715729 8,56.5 C8,57.3284271 8.67157288,58 9.5,58 Z M9.5,60 C7.56700338,60 6,58.4329966 6,56.5 C6,54.5670034 7.56700338,53 9.5,53 C11.4329966,53 13,54.5670034 13,56.5 C13,58.4329966 11.4329966,60 9.5,60 Z" id="Oval-Copy-27"></path>
                    <path d="M17.5,58 C18.3284271,58 19,57.3284271 19,56.5 C19,55.6715729 18.3284271,55 17.5,55 C16.6715729,55 16,55.6715729 16,56.5 C16,57.3284271 16.6715729,58 17.5,58 Z M17.5,60 C15.5670034,60 14,58.4329966 14,56.5 C14,54.5670034 15.5670034,53 17.5,53 C19.4329966,53 21,54.5670034 21,56.5 C21,58.4329966 19.4329966,60 17.5,60 Z" id="Oval-Copy-26"></path>
                    <path d="M25.5,58 C26.3284271,58 27,57.3284271 27,56.5 C27,55.6715729 26.3284271,55 25.5,55 C24.6715729,55 24,55.6715729 24,56.5 C24,57.3284271 24.6715729,58 25.5,58 Z M25.5,60 C23.5670034,60 22,58.4329966 22,56.5 C22,54.5670034 23.5670034,53 25.5,53 C27.4329966,53 29,54.5670034 29,56.5 C29,58.4329966 27.4329966,60 25.5,60 Z" id="Oval-Copy-25"></path>
                </g>
            </g>
        </g>
    </g>
</svg>
