<?xml version="1.0" encoding="UTF-8" standalone="no"?>
<svg width="72px" height="71px" viewBox="0 0 72 71" version="1.1" xmlns="http://www.w3.org/2000/svg" xmlns:xlink="http://www.w3.org/1999/xlink">
    <!-- Generator: Sketch 41.2 (35397) - http://www.bohemiancoding.com/sketch -->
    <title>ico-export</title>
    <desc>Created with Sketch.</desc>
    <defs></defs>
    <g id="Symbols" stroke="none" stroke-width="1" fill="none" fill-rule="evenodd">
        <g id="ICN/features/export" transform="translate(-17.000000, -20.000000)" fill="#000000">
            <g id="ico-export" transform="translate(17.000000, 20.000000)">
                <path d="M2,12 L59,12 L59,2 L2,2 L2,12 Z M0,0 L61,0 L61,14 L0,14 L0,0 Z" id="Rectangle-12-Copy-10"></path>
                <polygon id="Path-5-Copy-19" points="22 8 42 8 42 6 22 6"></polygon>
                <polygon id="Path-5-Copy-41" points="46 8 53 8 53 6 46 6"></polygon>
                <polygon id="Path-5-Copy-25" points="8 8 18 8 18 6 8 6"></polygon>
                <path d="M2,31 L59,31 L59,21 L2,21 L2,31 Z M0,19 L61,19 L61,33 L0,33 L0,19 Z" id="Rectangle-12-Copy-10"></path>
                <polygon id="Path-5-Copy-19" points="22 27 42 27 42 25 22 25"></polygon>
                <polygon id="Path-5-Copy-41" points="46 27 53 27 53 25 46 25"></polygon>
                <polygon id="Path-5-Copy-25" points="8 27 18 27 18 25 8 25"></polygon>
                <path d="M2,50 L59,50 L59,40 L2,40 L2,50 Z M0,38 L61,38 L61,52 L0,52 L0,38 Z" id="Rectangle-12-Copy-10"></path>
                <polygon id="Path-5-Copy-19" points="22 46 42 46 42 44 22 44"></polygon>
                <polygon id="Path-5-Copy-41" points="46 46 53 46 53 44 46 44"></polygon>
                <polygon id="Path-5-Copy-25" points="8 46 18 46 18 44 8 44"></polygon>
                <path d="M13,69 L70,69 L70,59 L13,59 L13,69 Z M11,57 L72,57 L72,71 L11,71 L11,57 Z" id="Rectangle-12-Copy-10"></path>
                <polygon id="Path-5-Copy-19" points="33 65 53 65 53 63 33 63"></polygon>
                <polygon id="Path-5-Copy-41" points="57 65 64 65 64 63 57 63"></polygon>
                <polygon id="Path-5-Copy-25" points="19 65 29 65 29 63 19 63"></polygon>
                <polygon id="Path-5-Copy-25" points="0 59 8 59 8 57 0 57"></polygon>
                <polygon id="Path-5-Copy-39" points="3 65 8 65 8 63 3 63"></polygon>
                <polygon id="Path-5-Copy-40" points="0 71 8 71 8 69 0 69"></polygon>
            </g>
        </g>
    </g>
</svg>