<?xml version="1.0" encoding="UTF-8" standalone="no"?>
<svg width="18px" height="18px" viewBox="0 0 18 18" version="1.1" xmlns="http://www.w3.org/2000/svg" xmlns:xlink="http://www.w3.org/1999/xlink">
    <!-- Generator: Sketch 41.2 (35397) - http://www.bohemiancoding.com/sketch -->
    <title>icn_info_sign</title>
    <desc>Created with Sketch.</desc>
    <defs>
        <rect id="path-1" x="0" y="0" width="18" height="18" rx="9"></rect>
        <mask id="mask-2" maskContentUnits="userSpaceOnUse" maskUnits="objectBoundingBox" x="0" y="0" width="18" height="18" fill="white">
            <use xlink:href="#path-1"></use>
        </mask>
    </defs>
    <g id="Symbols" stroke="none" stroke-width="1" fill="none" fill-rule="evenodd">
        <g id="ICN/info" transform="translate(-1.000000, -1.000000)">
            <g transform="translate(1.000000, 1.000000)" id="icn_info_sign">
                <g>
                    <use id="Rectangle-4" stroke="#1D59FB" mask="url(#mask-2)" stroke-width="2" xlink:href="#path-1"></use>
                    <path d="M7,7.5 L7,8 L8,8 L8,13.5 L7,13.5 L7,14 L11,14 L11,13.5 L10,13.5 L10,7.5 L7,7.5 Z M8.75,6 C9.44035594,6 10,5.44035594 10,4.75 C10,4.05964406 9.44035594,3.5 8.75,3.5 C8.05964406,3.5 7.5,4.05964406 7.5,4.75 C7.5,5.44035594 8.05964406,6 8.75,6 Z" id="info" fill="#1D59FB"></path>
                </g>
            </g>
        </g>
    </g>
</svg>