<?xml version="1.0" encoding="UTF-8" standalone="no"?>
<svg width="20px" height="12px" viewBox="0 0 20 12" version="1.1" xmlns="http://www.w3.org/2000/svg" xmlns:xlink="http://www.w3.org/1999/xlink">
    <!-- Generator: Sketch 41.2 (35397) - http://www.bohemiancoding.com/sketch -->
    <title>Fill 153</title>
    <desc>Created with Sketch.</desc>
    <defs></defs>
    <g id="Symbols" stroke="none" stroke-width="1" fill="none" fill-rule="evenodd">
        <g id="footer" transform="translate(-710.000000, -134.000000)" fill="#FFFFFF">
            <g id="Group-4" transform="translate(650.000000, 120.000000)">
                <g id="vk-copy" transform="translate(50.000000, 0.000000)">
                    <path d="M19.7854727,25.3621752 L20.9808361,25.3621752 C20.9808361,25.3621752 21.3418263,25.3223256 21.526331,25.1236947 C21.696216,24.9412256 21.6907875,24.5986181 21.6907875,24.5986181 C21.6907875,24.5986181 21.6671616,22.9946425 22.4117808,22.7585061 C23.14579,22.5257624 24.0881149,24.3086293 25.0869447,24.9941528 C25.8422975,25.5129373 26.4163532,25.3993722 26.4163532,25.3993722 L29.0872608,25.3621752 C29.0872608,25.3621752 30.4840927,25.2759373 29.8217634,24.1772985 C29.7675409,24.0876061 29.4357285,23.3648239 27.8359476,21.8798418 C26.1607855,20.3251537 26.3853249,20.5767735 28.402786,17.8879768 C29.6312751,16.2504436 30.1226708,15.2509969 29.9690094,14.8227066 C29.8226887,14.4148347 28.919103,14.5224161 28.919103,14.5224161 L25.9116949,14.5412306 C25.9116949,14.5412306 25.6888828,14.5107574 25.523501,14.609641 C25.3620054,14.706489 25.2582485,14.9323238 25.2582485,14.9323238 C25.2582485,14.9323238 24.7818427,16.1994288 24.1472724,17.2770941 C22.8083641,19.5508015 22.2728625,19.6711521 22.0539984,19.529643 C21.5447753,19.2006065 21.6720965,18.2079453 21.6720965,17.5024354 C21.6720965,15.2988657 22.0063146,14.3799817 21.0210558,14.1422415 C20.6941167,14.0632826 20.4534155,14.0109106 19.6173766,14.0025213 C18.5444612,13.9916027 17.6361873,14.005914 17.1220909,14.2576571 C16.7799769,14.4256298 16.5158965,14.7985872 16.6769602,14.8201775 C16.8757145,14.8467027 17.3257185,14.9414534 17.5643224,15.2662952 C17.8725087,15.6856409 17.8616519,16.6271021 17.8616519,16.6271021 C17.8616519,16.6271021 18.0388776,19.2210865 17.4481664,19.5431523 C17.0427619,19.7642372 16.4867187,19.3130612 15.2927123,17.2501371 C14.6812128,16.1935685 14.219365,15.0252238 14.219365,15.0252238 C14.219365,15.0252238 14.1305363,14.8072233 13.9715082,14.6902655 C13.7787992,14.5485713 13.5094137,14.5037868 13.5094137,14.5037868 L10.651719,14.5222928 C10.651719,14.5222928 10.2226885,14.5345067 10.0654493,14.7210471 C9.92505056,14.8870458 10.0542224,15.2301468 10.0542224,15.2301468 C10.0542224,15.2301468 12.2913495,20.4644421 14.8245725,23.1021006 C17.1479376,25.5210799 19.7854727,25.3621752 19.7854727,25.3621752 L19.7854727,25.3621752 Z" id="Fill-153"></path>
                </g>
            </g>
        </g>
    </g>
</svg>