<?xml version="1.0" encoding="UTF-8" standalone="no"?>
<svg width="76px" height="76px" viewBox="0 0 76 76" version="1.1" xmlns="http://www.w3.org/2000/svg" xmlns:xlink="http://www.w3.org/1999/xlink">
    <!-- Generator: Sketch 41.2 (35397) - http://www.bohemiancoding.com/sketch -->
    <title>ico-form-print</title>
    <desc>Created with Sketch.</desc>
    <defs></defs>
    <g id="Symbols" stroke="none" stroke-width="1" fill="none" fill-rule="evenodd">
        <g id="ICN/features/form_print" transform="translate(-17.000000, -17.000000)" fill="#000000">
            <g id="ico-form-print" style="mix-blend-mode: multiply;" transform="translate(17.000000, 17.000000)">
                <path d="M24,66 L22,66 L22,76 L76,76 L76,10 L53,10 L53,12 L74,12 L74,74 L24,74 L24,66 Z" id="Combined-Shape"></path>
                <polygon id="Path-5-Copy-19" points="53.2731934 22 65 22 65 20 53.2731934 20"></polygon>
                <polygon id="Path-5-Copy-35" points="53.2731934 29 65 29 65 27 53.2731934 27"></polygon>
                <polygon id="Path-5-Copy-36" points="53.2731934 36 65 36 65 34 53.2731934 34"></polygon>
                <polygon id="Path-5-Copy-37" points="53.2731934 55 65 55 65 53 53.2731934 53"></polygon>
                <polygon id="Path-5-Copy-38" points="53 62 62 62 62 60 53 60"></polygon>
                <path d="M2,64 L52,64 L52,2 L2,2 L2,64 Z M0,0 L54,0 L54,66 L0,66 L0,0 Z" id="Rectangle-12-Copy-10"></path>
                <path d="M12,16 L18,16 L18,10 L12,10 L12,16 Z M10,8 L20,8 L20,18 L10,18 L10,8 Z" id="Rectangle-12-Copy-10"></path>
                <polygon id="Path-5-Copy-8" points="10 25 44 25 44 23 10 23"></polygon>
                <polygon id="Path-5-Copy-29" points="10 31 44 31 44 29 10 29"></polygon>
                <polygon id="Path-5-Copy-30" points="10 37 40 37 40 35 10 35"></polygon>
                <polygon id="Path-5-Copy-31" points="10 58 28 58 28 56 10 56"></polygon>
                <polygon id="Path-5-Copy-4" points="1 45 5 45 5 43 1 43"></polygon>
                <polygon id="Path-5-Copy-5" points="7 45 11 45 11 43 7 43"></polygon>
                <polygon id="Path-5-Copy-6" points="13 45 17 45 17 43 13 43"></polygon>
                <polygon id="Path-5-Copy-7" points="19 45 23 45 23 43 19 43"></polygon>
                <polygon id="Path-5-Copy-8" points="25 45 29 45 29 43 25 43"></polygon>
                <polygon id="Path-5-Copy-9" points="31 45 35 45 35 43 31 43"></polygon>
                <polygon id="Path-5-Copy-10" points="37 45 41 45 41 43 37 43"></polygon>
                <polygon id="Path-5-Copy-32" points="43 45 47 45 47 43 43 43"></polygon>
                <polygon id="Path-5-Copy-33" points="49 45 53 45 53 43 49 43"></polygon>
                <polygon id="Path-5-Copy-19" points="24 10 44 10 44 8 24 8"></polygon>
                <polygon id="Path-5-Copy-24" points="24 18 37 18 37 16 24 16"></polygon>
                <polygon id="Path-5-Copy-26" points="24 14 44 14 44 12 24 12"></polygon>
                <polygon id="Path-5-Copy-34" points="10 53 44 53 44 51 10 51"></polygon>
            </g>
        </g>
    </g>
</svg>