<?xml version="1.0" encoding="UTF-8" standalone="no"?>
<svg width="34px" height="34px" viewBox="0 0 34 34" version="1.1" xmlns="http://www.w3.org/2000/svg" xmlns:xlink="http://www.w3.org/1999/xlink">
    <!-- Generator: Sketch 41.2 (35397) - http://www.bohemiancoding.com/sketch -->
    <title>Combined Shape Copy</title>
    <desc>Created with Sketch.</desc>
    <defs>
        <path d="M26,26 L17.0002124,26 C14.7920319,26 13,27.790861 13,30 C13,32.2046438 14.7909561,34 17.0002124,34 L26,34 L26,42.9997876 C26,45.2079681 27.790861,47 30,47 C32.2046438,47 34,45.2090439 34,42.9997876 L34,34 L42.9997876,34 C45.2079681,34 47,32.209139 47,30 C47,27.7953562 45.2090439,26 42.9997876,26 L34,26 L34,17.0002124 C34,14.7920319 32.209139,13 30,13 C27.7953562,13 26,14.7909561 26,17.0002124 L26,26 Z" id="path-1"></path>
        <mask id="mask-2" maskContentUnits="userSpaceOnUse" maskUnits="objectBoundingBox" x="0" y="0" width="34" height="34" fill="white">
            <use xlink:href="#path-1"></use>
        </mask>
    </defs>
    <g id="D_INDEX" stroke="none" stroke-width="1" fill="none" fill-rule="evenodd">
        <g id="D_index" transform="translate(-960.000000, -3058.000000)" stroke="#7A7A7A" stroke-width="4">
            <g id="Group-23" transform="translate(330.000000, 2780.000000)">
                <g id="Group-21-Copy-3" transform="translate(520.000000, 220.000000)">
                    <g id="Group-22" transform="translate(97.000000, 45.000000)">
                        <use id="Combined-Shape-Copy" mask="url(#mask-2)" xlink:href="#path-1"></use>
                    </g>
                </g>
            </g>
        </g>
    </g>
</svg>
