<?xml version="1.0" encoding="UTF-8" standalone="no"?>
<svg width="16px" height="16px" viewBox="0 0 16 16" version="1.1" xmlns="http://www.w3.org/2000/svg" xmlns:xlink="http://www.w3.org/1999/xlink">
    <!-- Generator: Sketch 41.2 (35397) - http://www.bohemiancoding.com/sketch -->
    <title>Fill 151</title>
    <desc>Created with Sketch.</desc>
    <defs></defs>
    <g id="Symbols" stroke="none" stroke-width="1" fill="none" fill-rule="evenodd">
        <g id="footer" transform="translate(-762.000000, -132.000000)" fill="#FFFFFF">
            <g id="Group-4" transform="translate(650.000000, 120.000000)">
                <g id="Group-6" transform="translate(100.000000, 0.000000)">
                    <g id="Group-3" transform="translate(12.000000, 12.000000)">
                        <path d="M7.99949459,0 C3.58231082,0 0,3.58163695 0,8.00005616 C0,11.5344658 2.29212411,14.5328092 5.47129019,15.5908466 C5.87151481,15.6641864 6.01757686,15.4172118 6.01757686,15.2053348 C6.01757686,15.0153025 6.01061351,14.5120876 6.00668258,13.8445599 C3.78127194,14.3278955 3.31186298,12.7722027 3.31186298,12.7722027 C2.94808367,11.8481539 2.42352941,11.6020216 2.42352941,11.6020216 C1.69726239,11.1057139 2.47839394,11.1155974 2.47839394,11.1155974 C3.28137021,11.1722589 3.70383265,11.9401376 3.70383265,11.9401376 C4.41746455,13.1625439 5.57624596,12.8095465 6.03200898,12.6048575 C6.10484346,12.0878282 6.31144181,11.7352239 6.53988488,11.5353082 C4.76338621,11.3334831 2.89585849,10.6471431 2.89585849,7.58158079 C2.89585849,6.70790397 3.20786186,5.99444054 3.71944405,5.43495718 C3.63717535,5.23268286 3.36262811,4.41898077 3.79783799,3.31781553 C3.79783799,3.31781553 4.46952127,3.10273761 5.99764144,4.13803173 C6.63579952,3.96029763 7.3202864,3.87185175 8.00044925,3.86842622 C8.67982592,3.87185175 9.36431279,3.96029763 10.0033132,4.13803173 C11.5304787,3.10273761 12.2011512,3.31781553 12.2011512,3.31781553 C12.6374842,4.41898077 12.362937,5.23268286 12.2807806,5.43495718 C12.7933736,5.99444054 13.1030184,6.70790397 13.1030184,7.58158079 C13.1030184,10.6547803 11.2325705,11.3311245 9.45051242,11.5290748 C9.73769479,11.7761617 9.99354205,12.264383 9.99354205,13.0106977 C9.99354205,14.0800786 9.98365857,14.942805 9.98365857,15.2053348 C9.98365857,15.4191773 10.1277552,15.6679489 10.5337077,15.5898357 C13.7098414,14.5300576 16,11.5335112 16,8.00005616 C16,3.58163695 12.41797,0 7.99949459,0" id="Fill-151"></path>
                    </g>
                </g>
            </g>
        </g>
    </g>
</svg>