<?xml version="1.0" encoding="UTF-8" standalone="no"?>
<svg width="70px" height="70px" viewBox="0 0 70 70" version="1.1" xmlns="http://www.w3.org/2000/svg" xmlns:xlink="http://www.w3.org/1999/xlink">
    <!-- Generator: Sketch 41.2 (35397) - http://www.bohemiancoding.com/sketch -->
    <title>ico-map-track</title>
    <desc>Created with Sketch.</desc>
    <defs>
        <circle id="path-1" cx="58" cy="36" r="4"></circle>
        <mask id="mask-2" maskContentUnits="userSpaceOnUse" maskUnits="objectBoundingBox" x="0" y="0" width="8" height="8" fill="white">
            <use xlink:href="#path-1"></use>
        </mask>
    </defs>
    <g id="Symbols" stroke="none" stroke-width="1" fill="none" fill-rule="evenodd">
        <g id="ICN/features/track" transform="translate(-20.000000, -17.000000)">
            <g id="ico-map-track" style="mix-blend-mode: multiply;" transform="translate(20.000000, 17.000000)">
                <polygon id="Combined-Shape" fill="#000000" points="18 20.173913 0 28 0 70 23 60 47 70 70 60 70 18 47 28 47 30.1666667 47.0166678 30.1736116 68 21.0504237 68 58.6887067 46.9833322 67.8263884 22.9833322 57.8263884 2 66.9495763 2 29.3112933 18 22.3547715"></polygon>
                <path d="M13,51.4142136 L10.8946068,53.5196068 L9.48039322,52.1053932 L11.5857864,50 L9.48039322,47.8946068 L10.8946068,46.4803932 L13,48.5857864 L15.1053932,46.4803932 L16.5196068,47.8946068 L14.4142136,50 L16.5196068,52.1053932 L15.1053932,53.5196068 L13,51.4142136 Z" id="Combined-Shape" fill="#000000"></path>
                <use id="Oval-9" stroke="#000000" mask="url(#mask-2)" stroke-width="4" fill="#FFFFFF" xlink:href="#path-1"></use>
                <path d="M36.2449698,44.312106 C38.3291248,41.6819338 40.4131496,38.8984625 42.3550131,36.0903729 C43.8270689,33.9616627 45.158738,31.9015938 46.3161484,29.9421011 C49.3293904,24.8406906 51,20.6771983 51,18 C51,9.163444 43.836556,2 35,2 C26.163444,2 19,9.163444 19,18 C19,20.6771983 20.6706096,24.8406906 23.6838516,29.9421011 C24.841262,31.9015938 26.1729311,33.9616627 27.6449869,36.0903729 C29.5868504,38.8984625 31.6708752,41.6819338 33.7550302,44.312106 C34.1899444,44.8609611 34.6061826,45.3794315 35,45.8641545 C35.3938174,45.3794315 35.8100556,44.8609611 36.2449698,44.312106 Z M35,49 C35,49 17,27.9411255 17,18 C17,8.0588745 25.0588745,0 35,0 C44.9411255,0 53,8.0588745 53,18 C53,27.9411255 35,49 35,49 Z" id="Oval-7" fill="#000000"></path>
                <path d="M35,24 C38.3137085,24 41,21.3137085 41,18 C41,14.6862915 38.3137085,12 35,12 C31.6862915,12 29,14.6862915 29,18 C29,21.3137085 31.6862915,24 35,24 Z M35,26 C30.581722,26 27,22.418278 27,18 C27,13.581722 30.581722,10 35,10 C39.418278,10 43,13.581722 43,18 C43,22.418278 39.418278,26 35,26 Z" id="Oval-8" fill="#000000"></path>
                <path d="M23,56 L23,37" id="Path-3" stroke="#222222" stroke-width="2"></path>
                <path d="M47,65 L47,37" id="Path-3-Copy" stroke="#222222" stroke-width="2"></path>
            </g>
        </g>
    </g>
</svg>