<?xml version="1.0" encoding="UTF-8" standalone="no"?>
<svg width="70px" height="60px" viewBox="0 0 70 60" version="1.1" xmlns="http://www.w3.org/2000/svg" xmlns:xlink="http://www.w3.org/1999/xlink">
    <!-- Generator: Sketch 41.2 (35397) - http://www.bohemiancoding.com/sketch -->
    <title>ico-hot-agregate</title>
    <desc>Created with Sketch.</desc>
    <defs></defs>
    <g id="Symbols" stroke="none" stroke-width="1" fill="none" fill-rule="evenodd">
        <g id="ICN/features/agregate" transform="translate(-25.000000, -26.000000)" fill="#000000">
            <g style="mix-blend-mode: multiply;" id="ico-hot-agregate">
                <g transform="translate(25.000000, 26.000000)">
                    <path d="M2,14 L14,14 L14,2 L2,2 L2,14 Z M16,51 L18,51 C19.6543235,51 21,49.6498969 21,47.9904421 L21,31 L16,31 L16,38 L0,38 L0,22 L16,22 L16,29 L21,29 L21,11.9954547 C21,10.3463588 19.653996,9 18,9 L16,9 L16,16 L0,16 L0,0 L16,0 L16,7 L18,7 C20.7586836,7 23,9.24190735 23,11.9954547 L23,29 L28.0493752,29 C28.5510997,23.9466773 32.8146519,20 38,20 C43.1853481,20 47.4489003,23.9466773 47.9506248,29 L54,29 L54,21 L70,30 L54,39 L54,31 L47.9506248,31 C47.4489003,36.0533227 43.1853481,40 38,40 C32.8146519,40 28.5510997,36.0533227 28.0493752,31 L23,31 L23,47.9904421 C23,50.7529987 20.760366,53 18,53 L16,53 L16,60 L0,60 L0,44 L16,44 L16,51 L16,51 Z M2,58 L14,58 L14,46 L2,46 L2,58 Z M38,38 C42.418278,38 46,34.418278 46,30 C46,25.581722 42.418278,22 38,22 C33.581722,22 30,25.581722 30,30 C30,34.418278 33.581722,38 38,38 Z M56,35.580305 L65.9205423,30 L56,24.419695 L56,35.580305 Z M2,36 L14,36 L14,24 L2,24 L2,36 Z" id="Combined-Shape"></path>
                </g>
            </g>
        </g>
    </g>
</svg>