<?xml version="1.0" encoding="UTF-8" standalone="no"?>
<svg width="29px" height="29px" viewBox="0 0 29 29" version="1.1" xmlns="http://www.w3.org/2000/svg" xmlns:xlink="http://www.w3.org/1999/xlink">
    <!-- Generator: Sketch 41.2 (35397) - http://www.bohemiancoding.com/sketch -->
    <title>ico-template-snowboard</title>
    <desc>Created with Sketch.</desc>
    <defs></defs>
    <g id="Symbols" stroke="none" stroke-width="1" fill="none" fill-rule="evenodd">
        <g id="INC/30/snowboard" transform="translate(0.000000, -1.000000)" fill="#222222">
            <g id="ico-template-snowboard">
                <path d="M2.47487373,28.2236111 C4.62036682,30.3691042 8.10700829,30.3696511 10.2545194,28.22214 L27.22214,11.2545194 C29.3712638,9.1053956 29.3717939,5.62305655 27.2236111,3.47487373 C25.078118,1.32938065 21.5914765,1.3288337 19.4439654,3.47634481 L2.47634481,20.4439654 C0.327221008,22.5930892 0.326690915,26.0754283 2.47487373,28.2236111 Z M3.8890873,26.8093975 C2.52204946,25.4423597 2.52238679,23.2263506 3.89055837,21.858179 L20.858179,4.89055837 C22.2245422,3.52419519 24.4448537,3.52454349 25.8093975,4.8890873 C27.1764354,6.25612513 27.176098,8.47213426 25.8079264,9.84030584 L8.84030584,26.8079264 C7.47394265,28.1742896 5.2536311,28.1739413 3.8890873,26.8093975 Z M9.29289322,19.7071068 L11.2928932,21.7071068 L12.7071068,20.2928932 L10.7071068,18.2928932 L9.29289322,19.7071068 Z M17.2928932,11.7071068 L19.2928932,13.7071068 L20.7071068,12.2928932 L18.7071068,10.2928932 L17.2928932,11.7071068 Z"></path>
            </g>
        </g>
    </g>
</svg>