<?xml version="1.0" encoding="UTF-8" standalone="no"?>
<svg width="30px" height="30px" viewBox="0 0 30 30" version="1.1" xmlns="http://www.w3.org/2000/svg" xmlns:xlink="http://www.w3.org/1999/xlink">
    <!-- Generator: Sketch 41.2 (35397) - http://www.bohemiancoding.com/sketch -->
    <title>Group 2</title>
    <desc>Created with Sketch.</desc>
    <defs></defs>
    <g id="Symbols" stroke="none" stroke-width="1" fill="none" fill-rule="evenodd">
        <g id="INC/30/smartphone" fill="#222222">
            <g id="Group-2">
                <g>
                    <path d="M30,7 L20,7 L20,12.9983345 C20,15.2118335 21.7901733,17 24.0016655,17 L25.9983345,17 C28.2118335,17 30,15.2098267 30,12.9983345 L30,7 Z M28,9 L28,12.9983345 C28,14.1057591 27.1067615,15 25.9983345,15 L24.0016655,15 C22.8942409,15 22,14.1067615 22,12.9983345 L22,9 L28,9 Z M22,3 L22,7 L24,7 L24,3 L22,3 Z M26,3 L26,7 L28,7 L28,3 L26,3 Z M19.9444444,26 L22.4722222,26 C24.4189414,26 26,24.4140567 26,22.4690476 L26,16 L24,16 L24,22.4690476 C24,23.3108659 23.3129885,24 22.4722222,24 L19.9444444,24 L19.9444444,26 Z" id="Combined-Shape"></path>
                    <path d="M16,7 L16,24 L2,24 L2,7 L16,7 Z M16,5 L16,3.99649048 C16,2.9002097 15.0977447,2 13.9905224,2 L4.00947762,2 C2.89221704,2 2,2.89056573 2,3.99649048 L2,5 L16,5 Z M16,26 L16,26.0035095 C16,27.1094343 15.107783,28 13.9905224,28 L4.00947762,28 C2.9022553,28 2,27.0997903 2,26.0035095 L2,26 L16,26 Z M0,3.99649048 L0,26.0035095 C0,28.2053773 1.79870075,30 4.00947762,30 L13.9905224,30 C16.2115239,30 18,28.214834 18,26.0035095 L18,3.99649048 C18,1.7946227 16.2012993,0 13.9905224,0 L4.00947762,0 C1.78847608,0 0,1.78516599 0,3.99649048 Z" id="Combined-Shape"></path>
                </g>
            </g>
        </g>
    </g>
</svg>