<?xml version="1.0" encoding="UTF-8" standalone="no"?>
<svg width="76px" height="76px" viewBox="0 0 76 76" version="1.1" xmlns="http://www.w3.org/2000/svg" xmlns:xlink="http://www.w3.org/1999/xlink">
    <!-- Generator: Sketch 41.2 (35397) - http://www.bohemiancoding.com/sketch -->
    <title>ico-calc-btns</title>
    <desc>Created with Sketch.</desc>
    <defs></defs>
    <g id="Symbols" stroke="none" stroke-width="1" fill="none" fill-rule="evenodd">
        <g id="ICN/feature/calc-btns" transform="translate(-17.000000, -17.000000)" fill="#000000">
            <g id="ico-calc-btns" transform="translate(17.000000, 17.000000)">
                <path d="M42,34 L74,34 L74,2 L42,2 L42,34 Z M40,0 L76,0 L76,36 L40,36 L40,0 Z" id="Rectangle-12-Copy-10"></path>
                <path d="M2,74 L34,74 L34,42 L2,42 L2,74 Z M0,40 L36,40 L36,76 L0,76 L0,40 Z" id="Rectangle-12-Copy-12"></path>
                <path d="M42,74 L74,74 L74,42 L42,42 L42,74 Z M40,40 L76,40 L76,76 L40,76 L40,40 Z" id="Rectangle-12-Copy-11"></path>
                <path d="M2,34 L34,34 L34,2 L2,2 L2,34 Z M0,0 L36,0 L36,36 L0,36 L0,0 Z" id="Rectangle-12-Copy-3"></path>
                <path d="M17,19 L8,19 L8,17 L17,17 L17,8 L19,8 L19,17 L28,17 L28,19 L19,19 L19,28 L17,28 L17,19 Z" id="Combined-Shape"></path>
                <path d="M16.5857864,58 L8.80761184,50.2218254 L10.2218254,48.8076118 L18,56.5857864 L25.7781746,48.8076118 L27.1923882,50.2218254 L19.4142136,58 L27.1923882,65.7781746 L25.7781746,67.1923882 L18,59.4142136 L10.2218254,67.1923882 L8.80761184,65.7781746 L16.5857864,58 Z" id="Combined-Shape"></path>
                <polygon id="Path-5-Copy-19" points="48 19 68 19 68 17 48 17"></polygon>
                <polygon id="Path-5-Copy-22" points="48 54 68 54 68 52 48 52"></polygon>
                <polygon id="Path-5-Copy-23" points="48 64 68 64 68 62 48 62"></polygon>
            </g>
        </g>
    </g>
</svg>