<?xml version="1.0" encoding="UTF-8" standalone="no"?>
<svg width="28px" height="30px" viewBox="0 0 28 30" version="1.1" xmlns="http://www.w3.org/2000/svg" xmlns:xlink="http://www.w3.org/1999/xlink">
    <!-- Generator: Sketch 41.2 (35397) - http://www.bohemiancoding.com/sketch -->
    <title>Combined Shape</title>
    <desc>Created with Sketch.</desc>
    <defs></defs>
    <g id="Symbols" stroke="none" stroke-width="1" fill="none" fill-rule="evenodd">
        <g id="INC/30/shoes" transform="translate(-1.000000, 0.000000)" fill="#222222">
            <g id="Combined-Shape">
                <path d="M15,16.2456986 L15,0 L1,0 L1,30 L29,30 L29,24.0016655 C29,21.8978119 27.4124158,19.7921031 25.3908873,19.2145235 L15,16.2456986 Z M3,2 L13,2 L13,17.7543014 L24.841445,21.1375714 C26.004191,21.4697846 27,22.7905861 27,24.0016655 L27,28 L3,28 L3,2 Z M3,7 L13,7 L13,5 L3,5 L3,7 Z M10,15 L14,15 L14,13 L10,13 L10,15 Z M11.5547002,19.8320503 L14.5547002,17.8320503 L13.4452998,16.1679497 L10.4452998,18.1679497 L11.5547002,19.8320503 Z M10,11 L14,11 L14,9 L10,9 L10,11 Z M3,26 L27,26 L27,24 L3,24 L3,26 Z M16.9486833,21.3162278 L17.9486833,18.3162278 L16.0513167,17.6837722 L15.0513167,20.6837722 L16.9486833,21.3162278 Z M15.0513167,20.6837722 L16.9486833,21.3162278 L17.9486833,18.3162278 L16.0513167,17.6837722 L15.0513167,20.6837722 Z M20.9486833,22.3162278 L21.9486833,19.3162278 L20.0513167,18.6837722 L19.0513167,21.6837722 L20.9486833,22.3162278 Z M19.0513167,21.6837722 L20.9486833,22.3162278 L21.9486833,19.3162278 L20.0513167,18.6837722 L19.0513167,21.6837722 Z"></path>
            </g>
        </g>
    </g>
</svg>