<?xml version="1.0" encoding="UTF-8" standalone="no"?>
<svg width="103px" height="103px" viewBox="0 0 103 103" version="1.1" xmlns="http://www.w3.org/2000/svg" xmlns:xlink="http://www.w3.org/1999/xlink">
    <!-- Generator: Sketch 41.2 (35397) - http://www.bohemiancoding.com/sketch -->
    <title>Group</title>
    <desc>Created with Sketch.</desc>
    <defs></defs>
    <g id="D_INDEX" stroke="none" stroke-width="1" fill="none" fill-rule="evenodd">
        <g id="D_ts_russianpost" transform="translate(-270.000000, -1520.000000)" fill="#000000">
            <g id="Group-6" transform="translate(230.000000, 1480.000000)">
                <g id="Group" transform="translate(40.000000, 40.000000)">
                    <g id="Shape">
                        <path d="M73.3395942,11.3624348 L73.405913,11.4287536 C64.6307246,15.2209855 54.1689275,22.6125217 44.108058,32.6748986 C42.2873043,34.4956522 40.5811014,36.3314783 38.9397101,38.1657971 C38.4905507,38.1462029 38.0474203,38.1055072 37.5922319,38.1055072 C27.7634783,38.1055072 17.7056232,42.5277681 9.99756522,50.2358261 C7.17901449,53.0543768 4.77646377,56.2165797 2.85623188,59.6304928 L0.218550725,64.3210435 L4.9075942,61.6833623 C10.2507826,58.677913 16.0355942,57.0877681 21.638029,57.0877681 C22.8272464,57.0877681 23.9878261,57.1872464 25.1303188,57.331942 C24.6389565,58.2468406 24.1626667,59.1557101 23.7376232,60.0434783 C23.504,60.5333333 23.277913,61.0201739 23.0638841,61.5024928 C22.8408116,62.005913 22.6282899,62.5048116 22.4278261,62.9976812 L23.5522319,64.122087 L24.7007536,65.2706087 L37.6133333,78.1816812 L38.7618551,79.3302029 L39.8862609,80.4546087 C40.3791304,80.2541449 40.878029,80.0431304 41.3814493,79.8185507 C41.8622609,79.6045217 42.3491014,79.3784348 42.8389565,79.1448116 C43.7312464,78.7182609 44.6446377,78.2389565 45.564058,77.7445797 C46.377971,84.1714783 44.9596522,91.2947246 41.2005797,97.9763478 L38.5628986,102.665391 L43.2534493,100.029217 C46.6703768,98.1074783 49.8310725,95.7049275 52.6481159,92.8878841 C59.4925217,86.0434783 63.7414493,77.4069565 64.6141449,68.5684638 C64.7693913,66.9948986 64.7754203,65.4605217 64.7136232,63.9487536 C66.5494493,62.3058551 68.3852754,60.5996522 70.2075362,58.7773913 C80.2684058,48.7165217 87.659942,38.2562319 91.4521739,29.4795362 L91.5169855,29.5458551 L102.815304,0.064115942 L73.3395942,11.3624348 Z M90.3684638,24.1303188 L90.3353043,24.0971594 L78.7867826,12.5516522 L78.7536232,12.5184928 L88.075942,8.94631884 L97.5851594,5.3017971 L93.9406377,14.8110145 L90.3684638,24.1303188 Z M36.3487536,41.1546667 C32.5233623,45.7095652 29.2918261,50.2222609 26.7385507,54.5133913 C25.0835942,54.2330435 23.381913,54.0732754 21.6395362,54.0732754 C17.2217971,54.0732754 12.7136232,54.9715942 8.36672464,56.6973913 C9.51072464,55.1750725 10.7677681,53.7266087 12.1303188,52.3655652 C18.9491014,45.5467826 27.7107246,41.5103768 36.3487536,41.1546667 Z M61.6177391,68.2730435 C60.8128696,76.4182029 56.8714203,84.4035942 50.5198841,90.7566377 C49.1588406,92.1161739 47.7133913,93.3732174 46.1925797,94.5172174 C48.6584348,88.317913 49.3608116,81.9573333 48.3795942,76.1423768 C52.6616812,73.5966377 57.1608116,70.3726377 61.7051594,66.5608116 C61.6795362,67.1290435 61.6750145,67.6942609 61.6177391,68.2730435 Z M68.0793043,56.6461449 C66.8282899,57.8971594 65.5817971,59.0954203 64.3413333,60.2469565 C63.8891594,60.665971 63.4445217,61.0457971 62.9938551,61.4527536 C62.5416812,61.8612174 62.0895072,62.2681739 61.6403478,62.6630725 C56.7794783,66.924058 52.0663188,70.4042899 47.6922899,73.0947246 C47.2416232,73.372058 46.7924638,73.6493913 46.3493333,73.9101449 C45.8911304,74.179942 45.4464928,74.4226087 44.9973333,74.6728116 C43.4931014,75.5153623 42.0205217,76.290087 40.6263188,76.9291594 L25.9608116,62.2636522 C26.5968696,60.8724638 27.3715942,59.405913 28.2081159,57.9077101 C28.4613333,57.4525217 28.7085217,57.0018551 28.9798261,56.5391304 C29.2405797,56.0944928 29.5209275,55.6408116 29.7997681,55.1886377 C32.4902029,50.8161159 35.9674203,46.105971 40.2253913,41.2466087 C40.6202899,40.7974493 41.0287536,40.3452754 41.4357101,39.8931014 C41.8441739,39.4409275 42.224,38.9932754 42.646029,38.5411014 C43.7945507,37.3021449 44.9928116,36.0571594 46.2408116,34.8076522 C56.992,24.0564638 67.5035362,16.992 75.6637681,13.6866087 L89.2018551,27.2262029 C85.8949565,35.3849275 78.8304928,45.8949565 68.0793043,56.6461449 Z"></path>
                        <path d="M67.5050435,24.9351884 C64.7874783,24.9351884 62.2311884,25.9932754 60.3109565,27.9165217 C58.3892174,29.8367536 57.3296232,32.3930435 57.3296232,35.1091014 C57.3296232,37.8251594 58.3877101,40.3814493 60.3109565,42.3031884 C62.2311884,44.2234203 64.7874783,45.2830145 67.5035362,45.2830145 C70.2195942,45.2830145 72.7758841,44.2249275 74.6976232,42.3031884 C76.6193623,40.3814493 77.6774493,37.8266667 77.6774493,35.1106087 C77.6774493,32.3915362 76.6193623,29.8367536 74.6976232,27.9165217 C72.7773913,25.9932754 70.2226087,24.9351884 67.5050435,24.9351884 Z M62.4422029,40.171942 C61.0902029,38.819942 60.3441159,37.0202899 60.3441159,35.1091014 C60.3441159,33.197913 61.0886957,31.3997681 62.4422029,30.0477681 C63.7942029,28.6957681 65.5923478,27.9496812 67.5050435,27.9496812 C69.4177391,27.9496812 71.2143768,28.6942609 72.5663768,30.0477681 C73.9183768,31.4012754 74.6629565,33.197913 74.6629565,35.1091014 C74.6629565,37.0233043 73.9183768,38.819942 72.5663768,40.171942 C71.2143768,41.5224348 69.4162319,42.2685217 67.5035362,42.2685217 C65.5923478,42.2685217 63.7942029,41.523942 62.4422029,40.171942 Z"></path>
                        <path d="M20.6733913,69.5496812 C20.084058,68.9603478 19.1314783,68.9603478 18.5421449,69.5496812 L12.9246377,75.1671884 C12.3353043,75.7565217 12.3353043,76.7091014 12.9246377,77.2984348 C13.2185507,77.5923478 13.6044058,77.740058 13.9902609,77.740058 C14.3761159,77.740058 14.761971,77.5923478 15.0558841,77.2984348 L20.6733913,71.6809275 C21.2627246,71.0915942 21.2627246,70.1375072 20.6733913,69.5496812 Z"></path>
                        <path d="M26.9375072,75.8122899 C26.3481739,75.2229565 25.3955942,75.2229565 24.8062609,75.8122899 L16.6354783,83.9845797 C16.0461449,84.573913 16.0461449,85.5264928 16.6354783,86.1158261 C16.9293913,86.4097391 17.3152464,86.5574493 17.7011014,86.5574493 C18.0869565,86.5574493 18.4728116,86.4097391 18.7667246,86.1158261 L26.9375072,77.9435362 C27.5253333,77.3542029 27.5253333,76.4016232 26.9375072,75.8122899 Z"></path>
                        <path d="M31.0688696,82.0764058 L25.4513623,87.693913 C24.862029,88.2832464 24.862029,89.2358261 25.4513623,89.8251594 C25.7452754,90.1190725 26.1311304,90.2667826 26.5169855,90.2667826 C26.9028406,90.2667826 27.2886957,90.1190725 27.5826087,89.8251594 L33.2001159,84.2076522 C33.7894493,83.6183188 33.7894493,82.6657391 33.2001159,82.0764058 C32.6107826,81.4870725 31.6582029,81.4885797 31.0688696,82.0764058 Z"></path>
                    </g>
                </g>
            </g>
        </g>
    </g>
</svg>