<?xml version="1.0" encoding="UTF-8" standalone="no"?>
<svg width="76px" height="68px" viewBox="0 0 76 68" version="1.1" xmlns="http://www.w3.org/2000/svg" xmlns:xlink="http://www.w3.org/1999/xlink">
    <!-- Generator: Sketch 41.2 (35397) - http://www.bohemiancoding.com/sketch -->
    <title>ico-forms-bars</title>
    <desc>Created with Sketch.</desc>
    <defs></defs>
    <g id="Symbols" stroke="none" stroke-width="1" fill="none" fill-rule="evenodd">
        <g id="ICN/feature/forms-bars" transform="translate(-17.000000, -21.000000)" fill="#000000">
            <g id="ico-forms-bars" style="mix-blend-mode: multiply;" transform="translate(17.000000, 21.000000)">
                <path d="M2,30 L74,30 L74,2 L2,2 L2,30 Z M0,0 L76,0 L76,32 L0,32 L0,0 Z" id="Rectangle-12-Copy-10"></path>
                <path d="M16,17.4142136 L10.1446068,23.2696068 L8.73039322,21.8553932 L14.5857864,16 L8.73039322,10.1446068 L10.1446068,8.73039322 L16,14.5857864 L21.8553932,8.73039322 L23.2696068,10.1446068 L17.4142136,16 L23.2696068,21.8553932 L21.8553932,23.2696068 L16,17.4142136 Z" id="Combined-Shape"></path>
                <polygon id="Path-5-Copy-19" points="29 11 66 11 66 9 29 9"></polygon>
                <polygon id="Path-5-Copy-24" points="29 23 55 23 55 21 29 21"></polygon>
                <polygon id="Path-5-Copy-26" points="29 17 66 17 66 15 29 15"></polygon>
                <path d="M2,48 L74,48 L74,38 L2,38 L2,48 Z M0,36 L76,36 L76,50 L0,50 L0,36 Z" id="Rectangle-12-Copy-10"></path>
                <polygon id="Path-5-Copy-19" points="39 44 68 44 68 42 39 42"></polygon>
                <polygon id="Path-5-Copy-25" points="8 44 18 44 18 42 8 42"></polygon>
                <polygon id="Path-5-Copy-27" points="23 44 33 44 33 42 23 42"></polygon>
                <path d="M2,66 L74,66 L74,56 L2,56 L2,66 Z M0,54 L76,54 L76,68 L0,68 L0,54 Z" id="Rectangle-12-Copy-10"></path>
                <polygon id="Path-5-Copy-19" points="39 62 68 62 68 60 39 60"></polygon>
                <polygon id="Path-5-Copy-25" points="8 62 18 62 18 60 8 60"></polygon>
                <polygon id="Path-5-Copy-27" points="23 62 33 62 33 60 23 60"></polygon>
            </g>
        </g>
    </g>
</svg>