<?xml version="1.0" encoding="UTF-8" standalone="no"?>
<svg width="18px" height="13px" viewBox="0 0 18 13" version="1.1" xmlns="http://www.w3.org/2000/svg" xmlns:xlink="http://www.w3.org/1999/xlink">
    <!-- Generator: Sketch 41.2 (35397) - http://www.bohemiancoding.com/sketch -->
    <title>Fill 155</title>
    <desc>Created with Sketch.</desc>
    <defs></defs>
    <g id="Symbols" stroke="none" stroke-width="1" fill="none" fill-rule="evenodd">
        <g id="footer" transform="translate(-661.000000, -134.000000)" fill="#FFFFFF">
            <g id="Group-4" transform="translate(650.000000, 120.000000)">
                <g id="vk">
                    <path d="M18.1416905,22.6647652 L18.1408567,17.6072664 L23.0045464,20.1448307 L18.1416905,22.6647652 Z M28.8202472,16.7310756 C28.8202472,16.7310756 28.6443062,15.4907334 28.1046904,14.9444468 C27.4201645,14.2275797 26.6529689,14.2240061 26.3011465,14.1820161 C23.7822841,14 20.0039012,14 20.0039012,14 L19.9960988,14 C19.9960988,14 16.2177754,14 13.6988535,14.1820161 C13.3469715,14.2240061 12.5800142,14.2275797 11.8953096,14.9444468 C11.3556342,15.4907334 11.1799911,16.7310756 11.1799911,16.7310756 C11.1799911,16.7310756 11,18.1877405 11,19.6443459 L11,21.0099433 C11,22.4665486 11.1799911,23.923154 11.1799911,23.923154 C11.1799911,23.923154 11.3556342,25.1636153 11.8953096,25.7097828 C12.5800142,26.426769 13.4794335,26.4040766 13.8800357,26.479182 C15.3200834,26.6173023 19.9999702,26.6600069 19.9999702,26.6600069 C19.9999702,26.6600069 23.7822841,26.6542892 26.3011465,26.4722731 C26.6529689,26.4302831 27.4201645,26.426769 28.1046904,25.7097828 C28.6443062,25.1636153 28.8202472,23.923154 28.8202472,23.923154 C28.8202472,23.923154 29,22.4665486 29,21.0099433 L29,19.6443459 C29,18.1877405 28.8202472,16.7310756 28.8202472,16.7310756 L28.8202472,16.7310756 Z" id="Fill-155"></path>
                </g>
            </g>
        </g>
    </g>
</svg>